<?xml version="1.0" encoding="UTF-8"?>
<svg xmlns="http://www.w3.org/2000/svg" xmlns:xlink="http://www.w3.org/1999/xlink" viewBox="0 0 128 128" width="128px" height="128px">
<g id="surface136754917">
<path style=" stroke:none;fill-rule:nonzero;fill:rgb(80.000001%,80.000001%,80.000001%);fill-opacity:1;" d="M 64 6 C 32 6 6 32 6 64 C 6 96 32 122 64 122 C 96 122 122 96 122 64 C 122 32 96 6 64 6 Z M 64 12 C 92.699219 12 116 35.300781 116 64 C 116 92.699219 92.699219 116 64 116 C 35.300781 116 12 92.699219 12 64 C 12 35.300781 35.300781 12 64 12 Z M 64 30 C 59.03125 30 55 34.03125 55 39 C 55 43.96875 59.03125 48 64 48 C 68.96875 48 73 43.96875 73 39 C 73 34.03125 68.96875 30 64 30 Z M 64 59 C 59 59 55 63 55 68 L 55 92 C 55 97 59 101 64 101 C 69 101 73 97 73 92 L 73 68 C 73 63 69 59 64 59 Z M 64 59 "/>
</g>
</svg>
